<?xml version="1.0" encoding="utf-8"?>
<!-- Generator: Adobe Illustrator 16.0.0, SVG Export Plug-In . SVG Version: 6.00 Build 0)  -->
<!DOCTYPE svg PUBLIC "-//W3C//DTD SVG 1.1//EN" "http://www.w3.org/Graphics/SVG/1.1/DTD/svg11.dtd">
<svg version="1.1" id="레이어_1" xmlns="http://www.w3.org/2000/svg" xmlns:xlink="http://www.w3.org/1999/xlink" x="0px"
	 y="0px" width="291.624px" height="40.761px" viewBox="0 0 291.624 40.761" enable-background="new 0 0 291.624 40.761"
	 xml:space="preserve">
<g>
	<path fill="#1C2688" stroke="#1C2688" stroke-miterlimit="10" d="M270.018,32.081v-8.979h18.008v-6.977h-18.008v-0.051h-8.924
		V39.28h30.03v-7.199H270.018z M270.018,7.702h21.106V0.5h-30.03v7.205h8.924V7.702z"/>
	<path fill="#1C2688" stroke="#1C2688" stroke-miterlimit="10" d="M80.658,7.917C76.896,3.223,70.72,0.5,63.123,0.5H45.396v7.417
		h17.285c7.746,0,12.822,4.63,12.822,12.097c0,7.476-5.076,12.104-12.822,12.104H45.396v7.418h17.727
		c7.597,0,13.773-2.721,17.529-7.418c2.555-3.195,3.995-7.318,3.995-12.104C84.647,15.229,83.213,11.116,80.658,7.917z"/>
	<path fill="#1C2688" stroke="#1C2688" stroke-miterlimit="10" d="M0.5,0.5h9.031v39.036H0.5V0.5z"/>
	<path fill="#1C2688" stroke="#1C2688" stroke-miterlimit="10" d="M100.225,0.5h9.033v39.036h-9.033V0.5z"/>
	<path fill="#1C2688" stroke="#1C2688" stroke-miterlimit="10" d="M181.483,0.5h9.025v39.036h-9.025V0.5z"/>
	<path fill="#1C2688" stroke="#1C2688" stroke-miterlimit="10" d="M243.994,0.5v39.036h-7.414l-19.463-23.699v23.699h-8.921V0.5
		h7.474l19.402,23.702V0.5H243.994z"/>
	<path fill="#1C2688" stroke="#1C2688" stroke-miterlimit="10" d="M165.948,0.5l-16.902,39.036h-8.921L123.287,0.5h9.755
		l11.878,27.882L156.97,0.5H165.948z"/>
	<path fill="#1C2688" stroke="#1C2688" stroke-miterlimit="10" d="M20.877,35.409c0-2.732,2.176-4.852,5.41-4.852
		c3.235,0,5.408,2.008,5.408,4.684c0,2.9-2.173,5.02-5.408,5.02C23.053,40.261,20.877,38.142,20.877,35.409z"/>
</g>
</svg>
